<svg width="24" height="24" viewBox="0 0 24 24" fill="none" xmlns="http://www.w3.org/2000/svg">
<path fill-rule="evenodd" clip-rule="evenodd" d="M10.7907 2.07366C11.4393 1.66125 12.2658 1.65315 12.9223 2.05276L20.2315 6.50178C20.8329 6.86787 21.2 7.52102 21.2 8.22512V15.832C21.2 16.5396 20.8292 17.1955 20.2229 17.5605L12.9135 21.9599C12.2613 22.3524 11.4437 22.3445 10.7992 21.9393L3.84358 17.5657C3.25635 17.1965 2.90002 16.5514 2.90002 15.8577V8.19924C2.90002 7.50921 3.25271 6.86707 3.83499 6.4968L10.7907 2.07366ZM10.2446 5.90002C7.55355 6.28238 5.02673 7.61524 4.60061 10.3364C5.30738 9.93312 6.00786 9.86814 6.38743 10.2354C6.92985 10.7603 6.6115 11.9693 5.67639 12.9359C5.50407 13.114 5.32272 13.2713 5.13831 13.4064C5.19481 13.5067 5.25503 13.6056 5.31877 13.7029C5.63127 13.2396 6.07463 12.9481 6.56985 12.9414C7.53765 12.9284 8.33701 14.0079 8.3552 15.3527C8.35869 15.6107 8.333 15.8597 8.28264 16.0938C8.39902 16.1445 8.5174 16.193 8.63762 16.239C8.61028 16.0916 8.59592 15.9405 8.59592 15.7865C8.59593 14.4932 9.5979 13.3999 10.9749 13.0418V14.1772C10.9749 15.9264 9.71547 16.0664 9.71545 17.4658C9.71546 19.2851 11.1149 19.9149 12.1645 19.9149C13.9837 19.9148 14.6834 18.0956 13.7038 17.256C12.7421 16.4317 11.4647 17.116 11.3948 17.9557L11.5347 18.0956C11.5365 18.093 11.6755 17.8848 11.8146 17.7457C11.9543 17.606 12.4429 17.7453 12.4444 17.7457L12.3044 17.4658C13.214 17.3259 13.4209 17.7734 13.2141 18.4454C12.9342 19.3551 10.8951 19.1768 10.9749 17.6758C11.0307 16.6277 11.7405 16.2709 12.2824 16.2808C12.2976 16.2811 12.3115 16.2795 12.3241 16.2764H13.1913C13.2811 16.2764 13.354 16.2035 13.354 16.1137C13.354 16.0437 13.3089 15.9814 13.2483 15.9464C13.1239 15.8746 12.9342 15.7189 12.9342 15.4366V13.0418C14.3112 13.4 15.3132 14.4933 15.3132 15.7865C15.3132 15.9405 15.2987 16.0916 15.2714 16.239C15.3733 16.2 15.474 16.1593 15.5732 16.1168C15.5198 15.8906 15.4894 15.6499 15.4861 15.4C15.4679 14.0553 16.2377 12.9546 17.2055 12.9414C17.7366 12.9343 18.217 13.2561 18.5453 13.7702C18.6157 13.6663 18.6821 13.5605 18.7442 13.453C18.5374 13.308 18.3337 13.1348 18.1412 12.9359C17.2061 11.9693 16.8878 10.7603 17.4302 10.2354C17.8268 9.85165 18.5739 9.93985 19.3123 10.3928C18.8925 7.72109 16.3055 6.34227 13.7079 5.92229C14.6708 6.4267 15.3132 7.33403 15.3132 8.36955C15.3132 9.66284 14.3112 10.756 12.9342 11.1142V6.74983C12.9342 6.56182 12.7817 6.41041 12.5937 6.41037C12.4602 6.41037 12.3389 6.48833 12.2769 6.60657C12.1402 6.86736 11.8702 7.3343 11.5347 7.66985C11.1357 8.06883 10.551 8.46784 10.3479 8.60207C10.3027 8.6319 10.2752 8.68226 10.2752 8.73635C10.2752 8.83618 10.3672 8.91236 10.4669 8.90813C10.6741 8.89933 10.9749 8.93395 10.9749 9.2092V11.1142C9.59791 10.756 8.59592 9.66287 8.59592 8.36955C8.59593 7.31856 9.25764 6.39968 10.2446 5.90002Z" fill="white"/>
</svg>
